<?xml version="1.0" standalone="no"?>
<!DOCTYPE svg PUBLIC "-//W3C//DTD SVG 20010904//EN"
 "http://www.w3.org/TR/2001/REC-SVG-20010904/DTD/svg10.dtd">
<svg version="1.0" xmlns="http://www.w3.org/2000/svg"
 width="640.000000pt" height="640.000000pt" viewBox="0 0 640.000000 640.000000"
 preserveAspectRatio="xMidYMid meet">

<g transform="translate(0.000000,640.000000) scale(0.100000,-0.100000)"
fill="#000000" stroke="none">
<path d="M0 3200 l0 -3200 3200 0 3200 0 0 3200 0 3200 -3200 0 -3200 0 0
-3200z m2501 311 l44 -39 37 34 c48 43 95 52 144 28 75 -38 94 -140 43 -229
-33 -58 -205 -255 -222 -255 -10 0 -147 146 -189 202 -106 140 -72 296 63 298
28 0 46 -9 80 -39z m556 7 c-3 -7 -5 -2 -5 12 0 14 2 19 5 13 2 -7 2 -19 0
-25z m1093 -23 c9 -11 10 -22 3 -38 -7 -15 -7 -59 0 -134 9 -99 8 -114 -7
-138 -16 -25 -20 -26 -104 -23 -87 3 -87 3 -90 31 -2 15 -7 27 -12 27 -5 0
-44 -14 -87 -31 -63 -25 -89 -30 -140 -27 -40 2 -67 -2 -74 -9 -10 -10 -22 -8
-55 12 -38 22 -44 23 -58 10 -8 -8 -32 -15 -55 -15 -32 0 -44 5 -57 25 l-16
25 -26 -25 c-21 -22 -33 -25 -71 -23 -47 3 -61 19 -47 55 5 13 9 14 18 5 18
-18 84 -15 103 5 14 13 16 28 11 69 -3 29 -8 58 -11 66 -5 14 11 46 19 37 3
-3 13 -43 22 -90 8 -46 19 -87 22 -90 4 -4 19 -9 35 -13 22 -5 34 0 71 34 24
22 48 40 55 40 6 0 28 -16 50 -35 33 -30 45 -35 87 -35 55 0 124 16 124 29 0
14 -57 33 -79 26 -24 -7 -29 13 -9 33 18 18 45 15 123 -13 39 -13 85 -25 103
-25 40 0 44 -27 6 -36 -21 -5 -23 -9 -11 -15 17 -10 107 -6 125 5 15 9 15 73
1 170 -16 104 -2 151 31 111z m-1063 -4 c10 9 13 8 13 -3 0 -23 -22 -38 -57
-38 -26 0 -33 4 -33 20 0 21 20 29 20 8 0 -7 5 -5 11 5 8 14 14 16 22 8 7 -7
14 -7 24 0z m1153 -165 c0 -85 -4 -157 -9 -160 -11 -7 -25 250 -16 287 16 63
25 17 25 -127z m-1151 -6 c12 -68 41 -123 57 -107 4 4 2 43 -5 87 -12 78 -8
111 10 93 5 -5 14 -43 20 -85 10 -60 10 -82 0 -107 -16 -37 -46 -49 -70 -27
-17 15 -21 15 -49 -1 -26 -15 -34 -15 -58 -4 -16 8 -43 13 -60 12 -45 -3 -60
20 -38 59 10 16 26 32 35 35 10 3 22 19 28 36 14 41 27 30 34 -27 5 -51 27
-80 52 -70 14 5 15 17 9 85 -10 124 14 139 35 21z"/>
<path d="M3580 3226 c0 -8 7 -16 15 -20 10 -4 15 1 15 14 0 11 -7 20 -15 20
-8 0 -15 -6 -15 -14z"/>
</g>
</svg>
