<svg width="40" height="40" viewBox="0 0 40 40" fill="none" xmlns="http://www.w3.org/2000/svg">
<g id="diamond 1">
<g id="Group">
<path id="Vector" d="M19.9999 35.1572L0 14.9925L7.6393 4.84302H32.3607L40 14.9925L19.9999 35.1572Z" fill="#82DCC7"/>
<path id="Vector_2" d="M40 14.9927L20 35.1571L30.3911 14.9927H40Z" fill="#82DCC7"/>
</g>
<g id="Group_2">
<path id="Vector_3" d="M20 14.9929V35.1573L30.3911 14.9929H20Z" fill="#95E5D0"/>
<path id="Vector_4" d="M7.6393 4.84277L9.60891 14.9929H0L7.6393 4.84277Z" fill="#95E5D0"/>
</g>
<path id="Vector_5" d="M9.60889 14.9929H19.9999V4.84277L9.60889 14.9929Z" fill="#A5EAD6"/>
<g id="Group_3">
<path id="Vector_6" d="M32.3607 4.84277L40 14.9929H30.3911L32.3607 4.84277Z" fill="#74CBB4"/>
<path id="Vector_7" d="M9.60913 14.9929L20.0001 35.1573V14.9929H9.60913Z" fill="#74CBB4"/>
<path id="Vector_8" d="M20 4.84277L9.60901 14.9929L7.6394 4.84277H20Z" fill="#74CBB4"/>
</g>
<path id="Vector_9" d="M20 4.84277L30.3911 14.9929L32.3607 4.84277H20Z" fill="#A5EAD6"/>
</g>
</svg>
