<svg width="40" height="40" viewBox="0 0 40 40" fill="none" xmlns="http://www.w3.org/2000/svg">
<g id="time 1" clip-path="url(#clip0_52_4439)">
<path id="Vector" d="M23.3468 18.7796L15.2655 13.0467C14.3979 12.4309 13.1952 12.6353 12.5795 13.5032L12.4998 13.6154C11.8844 14.4831 12.0886 15.6857 12.9565 16.3014L21.0376 22.0346C21.9055 22.6502 23.1079 22.4459 23.7237 21.5781L23.8032 21.4658C24.4192 20.5979 24.2145 19.3953 23.3468 18.7796Z" fill="#F39A2B"/>
<path id="Vector_2" d="M22.8541 16.5387L22.7419 16.4592C21.874 15.8435 20.6714 16.048 20.0557 16.9157L10.8986 29.823C10.2829 30.6908 10.4874 31.8935 11.3553 32.5091L11.4674 32.5888C12.3353 33.2045 13.5379 33.0001 14.1534 32.1322L23.3106 19.2249C23.9265 18.3569 23.722 17.1545 22.8541 16.5387Z" fill="#E5594F"/>
<path id="Vector_3" d="M34.8305 20.5126C34.8164 22.4699 34.514 24.0973 33.7562 26.0799C33.2394 27.4324 32.0285 29.2899 31.0012 30.42C28.5405 33.1275 25.045 34.8455 21.5961 35.1706C17.6596 35.5418 14.189 34.4879 10.9989 32.1022C11.2977 32.3258 10.7045 31.8519 10.7231 31.8675C10.5449 31.7182 10.3728 31.562 10.2009 31.4056C9.85699 31.093 9.53269 30.7597 9.2155 30.4203C8.5066 29.6613 8.19253 29.2279 7.59679 28.2771C6.53781 26.5871 6.00679 25.1411 5.60433 23.0999C5.44749 22.3048 5.39359 21.5451 5.38613 20.5127C5.36539 17.6482 0.921674 17.6463 0.942455 20.5127C1.00523 29.2036 6.96191 36.9247 15.3992 39.0953C23.8555 41.271 32.9398 37.1712 37.0363 29.5039C38.5111 26.7436 39.2518 23.6358 39.2743 20.5125C39.2949 17.6462 34.8512 17.6482 34.8305 20.5126Z" fill="#1B92D1"/>
<path id="Vector_4" d="M5.38601 19.5886C5.40015 17.6314 5.70253 16.0042 6.46031 14.0214C6.97722 12.6691 8.18816 10.8116 9.21539 9.68128C11.6761 6.9739 15.1713 5.25589 18.6204 4.9307C22.5568 4.5596 26.0277 5.61347 29.2177 7.99921C28.9188 7.77573 29.5119 8.24952 29.4934 8.23398C29.6716 8.38316 29.8437 8.53948 30.0157 8.69581C30.3596 9.00831 30.684 9.34171 31.0012 9.68116C31.71 10.4401 32.0241 10.8736 32.6198 11.8244C33.6789 13.5144 34.21 14.9603 34.6124 17.0014C34.7692 17.7964 34.8232 18.5563 34.8306 19.5886C34.8512 22.4531 39.2949 22.4552 39.2743 19.5886C39.2115 10.8976 33.2545 3.17675 24.8173 1.00601C16.361 -1.16977 7.27687 2.93023 3.18042 10.5975C1.7057 13.3578 0.964995 16.4654 0.942456 19.5886C0.921597 22.4552 5.36531 22.4531 5.38601 19.5886Z" fill="#00EE7A"/>
</g>
<defs>
<clipPath id="clip0_52_4439">
<rect width="40" height="40" fill="white"/>
</clipPath>
</defs>
</svg>
